<?xml version="1.0" standalone="no"?>
<!DOCTYPE svg PUBLIC "-//W3C//DTD SVG 20010904//EN"
 "http://www.w3.org/TR/2001/REC-SVG-20010904/DTD/svg10.dtd">
<svg version="1.0" xmlns="http://www.w3.org/2000/svg"
 width="2048.000000pt" height="2048.000000pt" viewBox="0 0 2048.000000 2048.000000"
 preserveAspectRatio="xMidYMid meet">

<g transform="translate(0.000000,2048.000000) scale(0.100000,-0.100000)"
fill="#000000" stroke="none">
<path d="M0 10240 l0 -10240 10240 0 10240 0 0 10240 0 10240 -10240 0 -10240
0 0 -10240z m12840 5495 c497 -76 935 -297 1290 -654 203 -203 332 -383 450
-626 73 -150 147 -358 179 -508 68 -314 69 -692 1 -997 -209 -951 -993 -1667
-1964 -1796 -140 -18 -449 -18 -586 0 -683 92 -1280 472 -1644 1046 -178 279
-290 579 -343 910 -27 173 -25 520 5 694 55 319 146 568 307 841 119 202 351
465 545 619 334 264 768 441 1196 485 123 13 437 5 564 -14z m-5604 -61 c-4
-10 -11 -47 -16 -83 -33 -230 27 -644 155 -1066 29 -96 212 -599 324 -890 22
-55 61 -161 89 -235 28 -74 81 -216 118 -315 37 -99 84 -225 104 -280 167
-453 554 -1481 559 -1487 4 -4 91 212 195 480 104 268 227 584 273 702 105
270 226 579 269 690 18 47 94 243 169 435 319 821 331 854 360 1053 20 136 20
380 0 497 -32 188 -90 335 -190 489 l-17 26 467 0 467 0 -57 -62 c-109 -121
-248 -353 -369 -614 -68 -149 -173 -411 -441 -1099 -25 -66 -68 -176 -95 -245
-106 -271 -203 -518 -465 -1190 -31 -80 -82 -212 -115 -295 -32 -82 -101 -260
-153 -395 -53 -135 -127 -326 -166 -425 -39 -98 -71 -187 -71 -197 0 -17 -16
-18 -299 -16 l-299 3 -37 95 c-21 52 -61 156 -90 230 -30 74 -88 225 -130 335
-42 110 -103 268 -135 350 -33 83 -126 323 -208 535 -82 212 -247 637 -366
945 -245 634 -394 1010 -474 1200 -127 303 -317 666 -418 798 l-36 47 552 0
c509 0 552 -1 546 -16z m999 -4804 c500 -47 950 -195 1303 -429 l112 -75 0
-410 c0 -344 -2 -408 -13 -396 -8 8 -65 71 -128 140 -639 697 -1157 1006
-1741 1036 -393 21 -793 -142 -1074 -438 -503 -529 -640 -1405 -350 -2246 229
-665 668 -1195 1211 -1462 395 -194 805 -244 1121 -136 274 93 499 310 619
595 148 354 148 837 -2 1281 -31 93 -131 304 -172 364 -17 24 -31 47 -31 50 0
4 206 5 458 4 l457 -3 5 -885 c5 -786 8 -895 23 -975 40 -204 101 -381 173
-500 19 -32 34 -59 34 -61 0 -2 -187 -4 -415 -4 l-415 0 0 273 -1 272 -36 -45
c-74 -91 -230 -238 -300 -283 -221 -141 -500 -235 -800 -267 -169 -19 -526 -8
-673 19 -600 113 -1070 391 -1441 851 -396 492 -571 1173 -463 1805 91 537
365 1025 774 1376 275 236 652 423 1014 504 224 50 513 67 751 45z m4512 -285
c46 -121 104 -272 128 -336 24 -64 69 -181 100 -260 31 -79 83 -214 115 -299
32 -85 131 -344 220 -575 89 -231 195 -505 234 -610 365 -958 482 -1252 614
-1543 117 -256 249 -488 340 -599 l34 -43 -557 0 -557 0 6 23 c36 132 32 371
-9 612 -29 174 -89 421 -141 585 -34 110 -62 184 -230 610 -39 102 -131 336
-203 520 -141 364 -381 980 -481 1235 -35 88 -66 164 -70 168 -8 9 -17 -13
-175 -423 -58 -151 -117 -302 -130 -335 -13 -33 -85 -220 -160 -415 -75 -195
-217 -562 -315 -815 -243 -628 -254 -673 -255 -990 0 -217 12 -303 61 -452 29
-85 89 -212 129 -270 14 -21 25 -41 25 -45 0 -5 -207 -8 -460 -8 l-461 0 64
78 c205 251 332 500 582 1147 64 165 127 327 140 360 13 33 80 209 150 390
113 295 161 417 240 620 13 33 80 206 149 385 69 179 159 413 201 520 113 290
155 402 155 413 0 6 -49 136 -110 289 -60 153 -110 281 -110 284 0 2 147 3
326 2 l327 -3 84 -220z m-457 -5008 c0 -19 -12 -29 -59 -51 -58 -28 -81 -28
-81 -1 0 15 96 74 123 75 11 0 17 -8 17 -23z m-6222 -205 c49 -25 82 -75 82
-123 0 -29 -5 -39 -21 -44 -26 -9 -29 -5 -48 53 -12 36 -24 51 -51 65 -43 22
-111 18 -149 -10 -45 -34 -53 -79 -49 -278 3 -152 6 -184 21 -206 23 -34 58
-49 116 -49 63 0 97 26 112 86 10 39 14 44 40 44 27 0 29 -3 29 -39 0 -162
-282 -211 -357 -61 -22 42 -23 57 -23 247 0 219 5 247 53 291 58 54 167 64
245 24z m741 14 c6 -7 9 -21 5 -30 -5 -14 -27 -16 -160 -16 l-154 0 0 -125 0
-125 79 0 c64 0 80 -3 85 -16 12 -32 -13 -44 -90 -44 l-74 0 0 -124 0 -124
152 -1 c86 -1 157 -6 163 -12 6 -6 6 -15 -1 -27 -10 -15 -33 -17 -170 -20 -87
-1 -169 0 -181 3 l-23 5 0 329 c0 180 3 331 7 334 3 4 84 7 178 7 134 0 175
-3 184 -14z m338 -8 c11 -13 74 -130 139 -260 l119 -238 3 254 c2 267 4 276
47 260 13 -5 15 -52 15 -334 0 -282 -2 -329 -15 -334 -8 -3 -21 -3 -29 0 -8 3
-66 108 -129 232 -64 125 -123 241 -131 257 -15 28 -16 12 -16 -226 0 -224 -2
-258 -16 -263 -8 -3 -24 -1 -35 4 -18 10 -19 25 -19 328 0 319 2 342 35 342 6
0 21 -10 32 -22z m998 -8 c0 -24 -2 -25 -85 -30 l-85 -5 -3 -301 c-2 -318 -3
-324 -47 -308 -13 5 -15 49 -15 310 l0 304 -85 0 c-67 0 -87 3 -91 15 -4 8 -1
22 6 30 11 13 44 15 209 13 l196 -3 0 -25z m560 4 c63 -33 85 -73 85 -159 0
-86 -23 -128 -85 -160 -22 -11 -42 -21 -44 -22 -1 -1 29 -66 69 -144 68 -134
71 -143 54 -156 -10 -7 -22 -13 -26 -13 -11 0 -37 44 -110 187 l-63 123 -57 0
-58 0 0 -149 c0 -155 -4 -170 -45 -155 -13 5 -15 52 -15 333 0 180 3 331 8
335 4 4 61 6 127 4 98 -2 127 -7 160 -24z m665 -5 c72 -41 80 -72 80 -310 0
-192 -1 -207 -22 -249 -57 -112 -255 -123 -329 -19 -23 33 -24 40 -27 252 -3
203 -2 221 17 260 20 42 56 71 109 88 43 13 128 3 172 -22z m1130 16 c7 -8 10
-21 7 -30 -5 -12 -35 -15 -159 -17 l-153 -3 -3 -122 -3 -123 81 0 c63 0 82 -3
86 -15 13 -32 -15 -45 -93 -45 l-74 0 3 -122 3 -123 153 -3 c124 -2 154 -5
159 -17 3 -9 0 -22 -7 -30 -10 -12 -43 -15 -175 -15 -90 0 -170 3 -179 6 -14
5 -16 44 -16 334 0 253 3 329 13 333 6 3 87 6 178 6 136 1 169 -2 179 -14z
m566 -6 c31 -15 45 -56 23 -70 -7 -4 -24 -2 -38 6 -107 54 -231 14 -231 -76 0
-53 30 -83 125 -124 138 -59 175 -103 175 -208 0 -115 -73 -187 -190 -187 -75
0 -122 15 -159 49 -33 31 -41 68 -16 77 8 4 33 -8 56 -27 51 -40 135 -52 186
-26 68 35 81 146 24 201 -15 14 -65 42 -112 61 -130 53 -174 118 -149 217 16
63 41 90 107 114 46 17 156 13 199 -7z m692 -11 l3 -28 -85 0 -86 0 0 -299 c0
-260 -2 -300 -16 -312 -11 -9 -20 -10 -32 -2 -15 9 -17 43 -20 312 l-2 301
-85 0 c-82 0 -85 1 -85 23 0 13 3 27 7 31 4 3 95 5 202 4 l196 -3 3 -27z m640
0 l3 -28 -155 0 -156 0 0 -125 0 -124 78 -3 c75 -3 77 -4 77 -28 0 -24 -2 -25
-77 -28 l-78 -3 0 -125 c0 -124 0 -125 23 -124 12 1 82 2 155 1 l133 -1 -3
-27 -3 -28 -174 -3 c-119 -2 -178 1 -187 9 -19 16 -21 638 -2 657 9 9 60 12
188 10 l175 -3 3 -27z m627 2 c0 -24 -2 -25 -85 -30 l-85 -5 -3 -301 c-2 -318
-3 -324 -47 -308 -13 5 -15 49 -15 310 l0 304 -85 0 c-67 0 -87 3 -91 15 -4 8
-1 22 6 30 11 13 44 15 209 13 l196 -3 0 -25z m309 24 c14 -5 16 -44 16 -334
0 -282 -2 -329 -15 -334 -8 -3 -22 -3 -30 0 -13 5 -15 52 -15 334 0 253 3 329
13 333 6 3 13 6 14 6 1 1 8 -2 17 -5z m636 -25 c64 -36 101 -129 64 -160 -22
-18 -47 0 -56 42 -14 71 -94 105 -174 74 -68 -26 -74 -47 -74 -270 0 -205 6
-232 60 -260 40 -21 119 -19 146 3 26 21 44 54 44 81 0 28 32 44 55 27 14 -10
17 -21 12 -52 -9 -52 -34 -84 -88 -112 -37 -20 -55 -23 -116 -19 -59 3 -78 9
-108 31 -63 48 -69 70 -73 268 -6 281 10 322 148 372 29 10 123 -5 160 -25z
m648 7 c17 -9 44 -32 59 -53 l28 -36 3 -216 c3 -211 3 -217 -20 -260 -46 -87
-170 -118 -268 -68 -83 42 -85 48 -88 303 -3 225 -3 225 22 268 23 40 59 65
111 79 34 10 121 0 153 -17z"/>
<path d="M12375 15650 c-210 -20 -443 -104 -630 -227 -965 -636 -1243 -2223
-586 -3336 125 -211 340 -450 521 -579 161 -114 373 -211 545 -247 417 -88
842 25 1198 320 407 336 679 867 769 1504 20 140 17 611 -5 754 -47 308 -125
558 -252 811 -290 578 -776 948 -1310 1000 -111 11 -134 10 -250 0z"/>
<path d="M8477 5333 c-4 -3 -7 -60 -7 -125 l0 -118 95 0 c89 0 96 2 126 28 24
21 32 38 36 75 11 99 -45 147 -173 147 -39 0 -74 -3 -77 -7z"/>
<path d="M9205 5326 c-16 -7 -39 -23 -50 -36 -19 -21 -20 -36 -20 -229 0 -183
2 -209 18 -233 32 -47 123 -63 178 -31 52 31 61 77 57 280 -3 200 -10 222 -73
249 -42 17 -71 17 -110 0z"/>
<path d="M14474 5334 c-12 -3 -34 -19 -50 -35 l-29 -30 -3 -187 c-4 -215 3
-253 51 -282 49 -30 119 -27 157 8 42 36 50 79 49 252 -1 164 -12 225 -49 251
-26 19 -90 30 -126 23z"/>
</g>
</svg>
